<?xml version="1.0" standalone="no"?>
<!DOCTYPE svg PUBLIC "-//W3C//DTD SVG 20010904//EN"
 "http://www.w3.org/TR/2001/REC-SVG-20010904/DTD/svg10.dtd">
<svg version="1.0" xmlns="http://www.w3.org/2000/svg"
 width="128.000000pt" height="128.000000pt" viewBox="0 0 128.000000 128.000000"
 preserveAspectRatio="xMidYMid meet">
<metadata>
Created by potrace 1.14, written by Peter Selinger 2001-2017
</metadata>
<g transform="translate(0.000000,128.000000) scale(0.100000,-0.100000)"
fill="#000000" stroke="none">
<path d="M565 1237 c-77 -20 -141 -56 -224 -127 -42 -36 -88 -71 -103 -79 -52
-26 -69 -50 -67 -89 2 -21 -5 -48 -14 -62 -21 -33 -47 -134 -47 -183 0 -22 5
-58 11 -81 23 -87 39 -144 63 -221 13 -44 27 -93 30 -110 4 -16 8 -39 10 -50
7 -33 37 -98 58 -125 44 -56 105 -64 186 -24 62 31 97 70 113 127 36 128 47
151 74 159 31 8 36 -2 66 -133 14 -59 29 -96 48 -120 37 -44 122 -91 166 -91
72 0 139 88 170 225 33 144 57 237 80 316 29 98 32 177 9 270 -42 167 -167
334 -290 388 -51 22 -267 28 -339 10z"/>
</g>
</svg>
